<svg xmlns="http://www.w3.org/2000/svg" viewBox="0 0 55 55"><defs><style>.cls-1{fill:none;stroke:#000;stroke-linecap:round;stroke-miterlimit:10;stroke-width:3px;}</style></defs><title>configurations</title><g id="Layer_2" data-name="Layer 2"><g id="Essentials"><circle class="cls-1" cx="27.5" cy="27.5" r="13"/><path class="cls-1" d="M51.72,22.5h-2.8a21.87,21.87,0,0,0-2.74-6.61l2-2a1.78,1.78,0,0,0,0-2.52L43.61,6.84a1.78,1.78,0,0,0-2.52,0l-2,2A21.86,21.86,0,0,0,32.5,6.08V3.28A1.78,1.78,0,0,0,30.72,1.5H24.28A1.78,1.78,0,0,0,22.5,3.28v2.8a21.86,21.86,0,0,0-6.61,2.74l-2-2a1.78,1.78,0,0,0-2.52,0L6.84,11.39a1.78,1.78,0,0,0,0,2.52l2,2A21.87,21.87,0,0,0,6.08,22.5H3.28A1.78,1.78,0,0,0,1.5,24.28v6.44A1.78,1.78,0,0,0,3.28,32.5h2.8a21.87,21.87,0,0,0,2.74,6.61l-2,2a1.78,1.78,0,0,0,0,2.52l4.55,4.55a1.78,1.78,0,0,0,2.52,0l2-2a21.87,21.87,0,0,0,6.61,2.74v2.8a1.78,1.78,0,0,0,1.78,1.78h6.44a1.78,1.78,0,0,0,1.78-1.78v-2.8a21.87,21.87,0,0,0,6.61-2.74l2,2a1.78,1.78,0,0,0,2.52,0l4.55-4.55a1.78,1.78,0,0,0,0-2.52l-2-2a21.87,21.87,0,0,0,2.74-6.61h2.8a1.78,1.78,0,0,0,1.78-1.78V24.28A1.78,1.78,0,0,0,51.72,22.5Z"/><circle class="cls-1" cx="27.5" cy="27.5" r="9"/></g></g></svg>