<svg xmlns="http://www.w3.org/2000/svg" viewBox="0 0 54.94 54.94"><defs><style>.cls-1{fill:none;stroke:#000;stroke-linecap:round;stroke-miterlimit:10;stroke-width:3px;}</style></defs><title>phone</title><g id="Layer_2" data-name="Layer 2"><g id="Communications"><path class="cls-1" d="M53,41.87c-1.9-3.59-8.9-7.69-8.9-7.69-1.58-.9-3.5-1-4.4.61a36.15,36.15,0,0,1-2.85,3.12c-2.64,1.79-5.09,1.72-7.56-.75l-5.74-5.74-5.74-5.74c-2.47-2.47-2.54-4.92-.75-7.56a36.15,36.15,0,0,1,3.12-2.85c1.61-.9,1.51-2.82.61-4.4,0,0-4.1-7-7.69-8.9a3.93,3.93,0,0,0-4.62.7L5.91,5.19c-8,8-4.08,17.13,4,25.17l7.35,7.35,7.35,7.35c8,8,17.13,12,25.17,4l2.54-2.54A3.93,3.93,0,0,0,53,41.87Z"/><path class="cls-1" d="M29.5,37.44a20,20,0,0,0,11,5"/><path class="cls-1" d="M18.5,26.44s-5.31-4.37-6-11"/></g></g></svg>